<svg width="135" height="114" viewBox="0 0 135 114" fill="none" xmlns="http://www.w3.org/2000/svg">
<path d="M128.171 71.6145C106.856 52.9952 110.288 39.9757 106.464 29.9537C104.222 24.0767 93.9835 14.1145 91.9403 22.9909C90.9963 27.0925 79.5877 20.875 77.5081 19.567C71.298 15.6612 64.1035 9.54442 58.9095 5.62762C54.4576 2.27036 49.1929 -2.88274 48.4282 3.11892C47.6635 9.12058 59.7005 22.4888 63.06 26.9475C66.4196 31.4062 69.7791 35.8649 64.4378 37.3273C59.0964 38.7898 38.1744 18.0393 31.3445 15.7721C24.5145 13.5048 21.0441 15.6962 33.6475 30.4497C46.2509 45.2031 48.011 52.5822 46.8844 53.7181C45.7578 54.8541 44.6311 55.99 31.263 47.2382C17.8949 38.4864 8.63075 36.0582 6.94079 37.7621C5.25083 39.4661 6.46606 41.5246 7.95657 43.2763C12.4459 48.5523 31.8761 63.6198 33.2743 66.1331C34.296 67.9699 32.3135 68.5746 30.9289 68.4978C18.0165 67.7814 4.71699 64.85 2.93653 65.3375C1.15608 65.825 -0.443427 68.7454 2.82568 71.9876C4.98231 74.1265 14.4804 79.4157 19.2818 81.5488C30.8762 88.1659 78.7783 111.632 82.7455 112.863C87.7045 114.401 78.5478 109.877 83.6837 106.931C93.5788 101.255 98.7709 95.6969 105.632 87.7007C111.59 80.7564 149.486 90.2338 128.171 71.6145Z" fill="#F5C1C7"/>
</svg>
