<svg width="204" height="210" viewBox="0 0 204 210" fill="none" xmlns="http://www.w3.org/2000/svg">
<path d="M83.8221 29.8568C78.665 31.4611 74.6419 54.6609 73.0433 61.5425C63.284 103.554 49.9217 152.239 48.7356 157.344C47.253 163.726 49.7234 164.86 52.7187 166.677C55.714 168.494 115.251 182.886 120.408 181.282C124.534 179.998 127.017 170.486 127.017 170.486C136.623 130.121 153.277 56.8665 153.549 53.3425C153.889 48.9375 154.507 46.2786 152.16 44.6124C149.813 42.9462 142.463 41.2387 138.789 40.385C122.186 36.3408 91.9261 27.3357 83.8221 29.8568Z" fill="#5992E8"/>
<path opacity="0.4" d="M115.015 72.869C116.945 74.8288 117.706 76.6705 117.604 79.4191V79.4191C117.411 84.6093 110.383 86.9464 105.199 86.6354C104.846 86.6142 104.506 86.5753 104.185 86.5152C101.622 86.035 98.9706 80.8814 99.8864 76.8552V76.8552C101.173 71.1999 110.17 69.0087 114.72 72.6052C114.825 72.6888 114.924 72.7766 115.015 72.869Z" fill="#FAF8F9"/>
<path opacity="0.4" d="M111.889 66.7388C110.858 68.1399 109.01 69.2412 107.877 69.5365C107.465 69.644 107.059 69.4624 106.73 69.1901C106.516 69.0118 106.326 68.7916 106.304 68.5132C106.266 68.0258 106.398 67.1848 107.051 66.0107C107.652 64.9291 109.449 64.0974 111.087 63.5642C112.307 63.1674 113.192 63.9858 112.717 65.1766C112.495 65.7314 112.216 66.2944 111.889 66.7388Z" fill="#FAF8F9"/>
<circle opacity="0.4" cx="139.042" cy="55.3767" r="3.62998" transform="rotate(37.0464 139.042 55.3767)" fill="#FAF8F9"/>
</svg>
